<mxfile host="app.diagrams.net" modified="2020-06-06T16:33:09.997Z" agent="5.0 (Macintosh; Intel Mac OS X 10_14_0) AppleWebKit/537.36 (KHTML, like Gecko) Chrome/81.0.4044.138 Safari/537.36" etag="hcMyY54qpwr8junWpSdM" version="13.1.14" type="github">
  <diagram name="Page-1" id="bd83a815-5ea8-2e97-e5ec-87c9f400f2fa">
    <mxGraphModel dx="946" dy="614" grid="1" gridSize="10" guides="1" tooltips="1" connect="1" arrows="1" fold="1" page="1" pageScale="1.5" pageWidth="1169" pageHeight="826" background="#ffffff" math="0" shadow="0">
      <root>
        <mxCell id="0" style=";html=1;" />
        <mxCell id="1" style=";html=1;" parent="0" />
        <mxCell id="Qp-HphKMrTElHFIgSeHp-2" value="&lt;table border=&quot;1&quot; style=&quot;box-sizing: border-box ; border-collapse: collapse ; border-spacing: 0px ; font-size: 18.88px ; padding: 0px ; width: 860px ; margin: 0px auto 0.5em ; overflow: scroll ; display: table ; border: 0px ; max-width: 100% ; font-style: normal ; font-weight: 400 ; font-stretch: inherit ; line-height: 1.65em ; font-family: &amp;#34;georgia&amp;#34; , &amp;#34;baskerville&amp;#34; , &amp;#34;roman&amp;#34; , &amp;#34;times new roman&amp;#34; , &amp;#34;times&amp;#34; , serif ; outline: 0px ; vertical-align: baseline ; text-align: left ; color: rgb(51 , 51 , 51) ; letter-spacing: normal ; text-indent: 0px ; text-transform: none ; word-spacing: 0px ; background-color: rgb(255 , 255 , 255)&quot;&gt;&lt;thead style=&quot;box-sizing: border-box ; font-family: inherit ; border: 0px ; font-style: inherit ; font-variant: inherit ; font-weight: bold ; font-stretch: inherit ; font-size: inherit ; line-height: inherit ; margin: 0px ; outline: 0px ; padding: 0px ; vertical-align: baseline ; display: table-header-group&quot;&gt;&lt;tr style=&quot;box-sizing: border-box ; border: 0px ; font: inherit ; margin: 0px ; outline: 0px ; padding: 0px ; vertical-align: baseline ; display: table-row&quot;&gt;&lt;td style=&quot;box-sizing: border-box ; margin: 0px ; padding: 3px ; border: 1px solid rgb(192 , 192 , 192) ; font-style: inherit ; font-variant: inherit ; font-weight: inherit ; font-stretch: inherit ; font-size: 18.88px ; line-height: 1.65em ; outline: 0px ; vertical-align: text-top ; display: table-cell ; text-indent: 0px ; text-align: left&quot;&gt;&lt;span class=&quot;left&quot; style=&quot;font-style: inherit ; font-variant: inherit ; font-weight: inherit ; font-stretch: inherit ; font-size: inherit ; line-height: inherit ; box-sizing: border-box ; border: 0px ; margin: 0px ; outline: 0px ; padding: 0px ; vertical-align: baseline ; text-align: left&quot;&gt;&lt;font face=&quot;Helvetica&quot;&gt;Percent Uptime&lt;/font&gt;&lt;/span&gt;&lt;/td&gt;&lt;td style=&quot;box-sizing: border-box ; margin: 0px ; padding: 3px ; border: 1px solid rgb(192 , 192 , 192) ; font-style: inherit ; font-variant: inherit ; font-weight: inherit ; font-stretch: inherit ; font-size: 18.88px ; line-height: 1.65em ; outline: 0px ; vertical-align: text-top ; display: table-cell ; text-indent: 0px ; text-align: left&quot;&gt;&lt;span class=&quot;left&quot; style=&quot;box-sizing: border-box ; border: 0px ; font-style: inherit ; font-variant: inherit ; font-weight: inherit ; font-stretch: inherit ; font-size: inherit ; line-height: inherit ; margin: 0px ; outline: 0px ; padding: 0px ; vertical-align: baseline ; text-align: left&quot;&gt;&lt;font face=&quot;Helvetica&quot;&gt;Downtime / Day&lt;/font&gt;&lt;/span&gt;&lt;/td&gt;&lt;td style=&quot;box-sizing: border-box ; margin: 0px ; padding: 3px ; border: 1px solid rgb(192 , 192 , 192) ; font-style: inherit ; font-variant: inherit ; font-weight: inherit ; font-stretch: inherit ; font-size: 18.88px ; line-height: 1.65em ; outline: 0px ; vertical-align: text-top ; display: table-cell ; text-indent: 0px ; text-align: left&quot;&gt;&lt;span class=&quot;left&quot; style=&quot;box-sizing: border-box ; border: 0px ; font-style: inherit ; font-variant: inherit ; font-weight: inherit ; font-stretch: inherit ; font-size: inherit ; line-height: inherit ; margin: 0px ; outline: 0px ; padding: 0px ; vertical-align: baseline ; text-align: left&quot;&gt;&lt;font face=&quot;Helvetica&quot;&gt;Downtime / Week&lt;/font&gt;&lt;/span&gt;&lt;/td&gt;&lt;td style=&quot;box-sizing: border-box ; margin: 0px ; padding: 3px ; border: 1px solid rgb(192 , 192 , 192) ; font-style: inherit ; font-variant: inherit ; font-weight: inherit ; font-stretch: inherit ; font-size: 18.88px ; line-height: 1.65em ; outline: 0px ; vertical-align: text-top ; display: table-cell ; text-indent: 0px ; text-align: left&quot;&gt;&lt;span class=&quot;left&quot; style=&quot;font-style: inherit ; font-variant: inherit ; font-weight: inherit ; font-stretch: inherit ; font-size: inherit ; line-height: inherit ; box-sizing: border-box ; border: 0px ; margin: 0px ; outline: 0px ; padding: 0px ; vertical-align: baseline ; text-align: left&quot;&gt;&lt;font face=&quot;Helvetica&quot;&gt;Downtime / Month&lt;/font&gt;&lt;/span&gt;&lt;/td&gt;&lt;th&gt;&amp;nbsp;&lt;font face=&quot;Helvetica&quot;&gt;Downtime / Year&lt;/font&gt;&lt;/th&gt;&lt;/tr&gt;&lt;/thead&gt;&lt;tbody style=&quot;box-sizing: border-box ; max-width: 100% ; overflow: scroll&quot;&gt;&lt;tr style=&quot;box-sizing: border-box ; border-width: 0px 0px 1px ; border-bottom-style: solid ; border-bottom-color: rgb(221 , 221 , 221) ; font-style: inherit ; font-variant: inherit ; font-weight: inherit ; font-stretch: inherit ; font-size: inherit ; line-height: inherit ; margin: 0px ; outline: 0px ; padding: 0px ; vertical-align: baseline ; display: table-row&quot;&gt;&lt;td style=&quot;box-sizing: border-box ; margin: 0px ; padding: 10px ; border: 1px solid rgb(192 , 192 , 192) ; font-style: inherit ; font-variant: inherit ; font-weight: inherit ; font-stretch: inherit ; font-size: 18.88px ; line-height: 1.65em ; outline: 0px ; vertical-align: text-top ; display: table-cell ; text-indent: 0px ; text-align: left&quot;&gt;&lt;span class=&quot;left&quot; style=&quot;font-style: inherit ; font-variant: inherit ; font-weight: inherit ; font-stretch: inherit ; font-size: inherit ; line-height: inherit ; box-sizing: border-box ; border: 0px ; margin: 0px ; outline: 0px ; padding: 0px ; vertical-align: baseline ; text-align: left&quot;&gt;&lt;font face=&quot;Helvetica&quot;&gt;99.00&lt;/font&gt;&lt;/span&gt;&lt;/td&gt;&lt;td style=&quot;box-sizing: border-box ; margin: 0px ; padding: 10px ; border: 1px solid rgb(192 , 192 , 192) ; font-style: inherit ; font-variant: inherit ; font-weight: inherit ; font-stretch: inherit ; font-size: 18.88px ; line-height: 1.65em ; outline: 0px ; vertical-align: text-top ; display: table-cell ; text-indent: 0px ; text-align: left&quot;&gt;&lt;span class=&quot;left&quot; style=&quot;box-sizing: border-box ; border: 0px ; font-style: inherit ; font-variant: inherit ; font-weight: inherit ; font-stretch: inherit ; font-size: inherit ; line-height: inherit ; margin: 0px ; outline: 0px ; padding: 0px ; vertical-align: baseline ; text-align: left&quot;&gt;&lt;font face=&quot;Helvetica&quot;&gt;14.4 minutes&lt;/font&gt;&lt;/span&gt;&lt;/td&gt;&lt;td style=&quot;box-sizing: border-box ; margin: 0px ; padding: 10px ; border: 1px solid rgb(192 , 192 , 192) ; font-style: inherit ; font-variant: inherit ; font-weight: inherit ; font-stretch: inherit ; font-size: 18.88px ; line-height: 1.65em ; outline: 0px ; vertical-align: text-top ; display: table-cell ; text-indent: 0px ; text-align: left&quot;&gt;&lt;span class=&quot;left&quot; style=&quot;box-sizing: border-box ; border: 0px ; font-style: inherit ; font-variant: inherit ; font-weight: inherit ; font-stretch: inherit ; font-size: inherit ; line-height: inherit ; margin: 0px ; outline: 0px ; padding: 0px ; vertical-align: baseline ; text-align: left&quot;&gt;&lt;font face=&quot;Helvetica&quot;&gt;1.68 hours&lt;/font&gt;&lt;/span&gt;&lt;/td&gt;&lt;td style=&quot;box-sizing: border-box ; margin: 0px ; padding: 10px ; border: 1px solid rgb(192 , 192 , 192) ; font-style: inherit ; font-variant: inherit ; font-weight: inherit ; font-stretch: inherit ; font-size: 18.88px ; line-height: 1.65em ; outline: 0px ; vertical-align: text-top ; display: table-cell ; text-indent: 0px ; text-align: left&quot;&gt;&lt;span class=&quot;left&quot; style=&quot;box-sizing: border-box ; border: 0px ; font-style: inherit ; font-variant: inherit ; font-weight: inherit ; font-stretch: inherit ; font-size: inherit ; line-height: inherit ; margin: 0px ; outline: 0px ; padding: 0px ; vertical-align: baseline ; text-align: left&quot;&gt;&lt;font face=&quot;Helvetica&quot;&gt;7.31 hours&lt;/font&gt;&lt;/span&gt;&lt;/td&gt;&lt;td&gt;&lt;font face=&quot;Helvetica&quot;&gt;&amp;nbsp;36.55 minutes&lt;/font&gt;&lt;/td&gt;&lt;/tr&gt;&lt;tr style=&quot;box-sizing: border-box ; border-width: 0px 0px 1px ; border-bottom-style: solid ; border-bottom-color: rgb(221 , 221 , 221) ; font-style: inherit ; font-variant: inherit ; font-weight: inherit ; font-stretch: inherit ; font-size: inherit ; line-height: inherit ; margin: 0px ; outline: 0px ; padding: 0px ; vertical-align: baseline ; display: table-row&quot;&gt;&lt;td style=&quot;box-sizing: border-box ; margin: 0px ; padding: 10px ; border: 1px solid rgb(192 , 192 , 192) ; font-style: inherit ; font-variant: inherit ; font-weight: inherit ; font-stretch: inherit ; font-size: 18.88px ; line-height: 1.65em ; outline: 0px ; vertical-align: text-top ; display: table-cell ; text-indent: 0px ; text-align: left&quot;&gt;&lt;span class=&quot;left&quot; style=&quot;box-sizing: border-box ; border: 0px ; font-style: inherit ; font-variant: inherit ; font-weight: inherit ; font-stretch: inherit ; font-size: inherit ; line-height: inherit ; margin: 0px ; outline: 0px ; padding: 0px ; vertical-align: baseline ; text-align: left&quot;&gt;&lt;font face=&quot;Helvetica&quot;&gt;99.90&lt;/font&gt;&lt;/span&gt;&lt;/td&gt;&lt;td style=&quot;box-sizing: border-box ; margin: 0px ; padding: 10px ; border: 1px solid rgb(192 , 192 , 192) ; font-style: inherit ; font-variant: inherit ; font-weight: inherit ; font-stretch: inherit ; font-size: 18.88px ; line-height: 1.65em ; outline: 0px ; vertical-align: text-top ; display: table-cell ; text-indent: 0px ; text-align: left&quot;&gt;&lt;span class=&quot;left&quot; style=&quot;box-sizing: border-box ; border: 0px ; font-style: inherit ; font-variant: inherit ; font-weight: inherit ; font-stretch: inherit ; font-size: inherit ; line-height: inherit ; margin: 0px ; outline: 0px ; padding: 0px ; vertical-align: baseline ; text-align: left&quot;&gt;&lt;font face=&quot;Helvetica&quot;&gt;1.44 minutes&lt;/font&gt;&lt;/span&gt;&lt;/td&gt;&lt;td style=&quot;box-sizing: border-box ; margin: 0px ; padding: 10px ; border: 1px solid rgb(192 , 192 , 192) ; font-style: inherit ; font-variant: inherit ; font-weight: inherit ; font-stretch: inherit ; font-size: 18.88px ; line-height: 1.65em ; outline: 0px ; vertical-align: text-top ; display: table-cell ; text-indent: 0px ; text-align: left&quot;&gt;&lt;span class=&quot;left&quot; style=&quot;box-sizing: border-box ; border: 0px ; font-style: inherit ; font-variant: inherit ; font-weight: inherit ; font-stretch: inherit ; font-size: inherit ; line-height: inherit ; margin: 0px ; outline: 0px ; padding: 0px ; vertical-align: baseline ; text-align: left&quot;&gt;&lt;font face=&quot;Helvetica&quot;&gt;10.08 minutes&lt;/font&gt;&lt;/span&gt;&lt;/td&gt;&lt;td style=&quot;box-sizing: border-box ; margin: 0px ; padding: 10px ; border: 1px solid rgb(192 , 192 , 192) ; font-style: inherit ; font-variant: inherit ; font-weight: inherit ; font-stretch: inherit ; font-size: 18.88px ; line-height: 1.65em ; outline: 0px ; vertical-align: text-top ; display: table-cell ; text-indent: 0px ; text-align: left&quot;&gt;&lt;span class=&quot;left&quot; style=&quot;box-sizing: border-box ; border: 0px ; font-style: inherit ; font-variant: inherit ; font-weight: inherit ; font-stretch: inherit ; font-size: inherit ; line-height: inherit ; margin: 0px ; outline: 0px ; padding: 0px ; vertical-align: baseline ; text-align: left&quot;&gt;&lt;font face=&quot;Helvetica&quot;&gt;43.83 minutes&lt;/font&gt;&lt;/span&gt;&lt;/td&gt;&lt;td&gt;&lt;font face=&quot;Helvetica&quot;&gt;&amp;nbsp;3.65 minutes&lt;/font&gt;&lt;/td&gt;&lt;/tr&gt;&lt;tr style=&quot;box-sizing: border-box ; border-width: 0px 0px 1px ; border-bottom-style: solid ; border-bottom-color: rgb(221 , 221 , 221) ; font-style: inherit ; font-variant: inherit ; font-weight: inherit ; font-stretch: inherit ; font-size: inherit ; line-height: inherit ; margin: 0px ; outline: 0px ; padding: 0px ; vertical-align: baseline ; display: table-row&quot;&gt;&lt;td style=&quot;box-sizing: border-box ; margin: 0px ; padding: 10px ; border: 1px solid rgb(192 , 192 , 192) ; font-style: inherit ; font-variant: inherit ; font-weight: inherit ; font-stretch: inherit ; font-size: 18.88px ; line-height: 1.65em ; outline: 0px ; vertical-align: text-top ; display: table-cell ; text-indent: 0px ; text-align: left&quot;&gt;&lt;span class=&quot;left&quot; style=&quot;box-sizing: border-box ; border: 0px ; font-style: inherit ; font-variant: inherit ; font-weight: inherit ; font-stretch: inherit ; font-size: inherit ; line-height: inherit ; margin: 0px ; outline: 0px ; padding: 0px ; vertical-align: baseline ; text-align: left&quot;&gt;&lt;font face=&quot;Helvetica&quot;&gt;99.99&lt;/font&gt;&lt;/span&gt;&lt;/td&gt;&lt;td style=&quot;box-sizing: border-box ; margin: 0px ; padding: 10px ; border: 1px solid rgb(192 , 192 , 192) ; font-style: inherit ; font-variant: inherit ; font-weight: inherit ; font-stretch: inherit ; font-size: 18.88px ; line-height: 1.65em ; outline: 0px ; vertical-align: text-top ; display: table-cell ; text-indent: 0px ; text-align: left&quot;&gt;&lt;span class=&quot;left&quot; style=&quot;box-sizing: border-box ; border: 0px ; font-style: inherit ; font-variant: inherit ; font-weight: inherit ; font-stretch: inherit ; font-size: inherit ; line-height: inherit ; margin: 0px ; outline: 0px ; padding: 0px ; vertical-align: baseline ; text-align: left&quot;&gt;&lt;font face=&quot;Helvetica&quot;&gt;8.64 seconds&lt;/font&gt;&lt;/span&gt;&lt;/td&gt;&lt;td style=&quot;box-sizing: border-box ; margin: 0px ; padding: 10px ; border: 1px solid rgb(192 , 192 , 192) ; font-style: inherit ; font-variant: inherit ; font-weight: inherit ; font-stretch: inherit ; font-size: 18.88px ; line-height: 1.65em ; outline: 0px ; vertical-align: text-top ; display: table-cell ; text-indent: 0px ; text-align: left&quot;&gt;&lt;span class=&quot;left&quot; style=&quot;box-sizing: border-box ; border: 0px ; font-style: inherit ; font-variant: inherit ; font-weight: inherit ; font-stretch: inherit ; font-size: inherit ; line-height: inherit ; margin: 0px ; outline: 0px ; padding: 0px ; vertical-align: baseline ; text-align: left&quot;&gt;&lt;font face=&quot;Helvetica&quot;&gt;1.01 minutes&lt;/font&gt;&lt;/span&gt;&lt;/td&gt;&lt;td style=&quot;box-sizing: border-box ; margin: 0px ; padding: 10px ; border: 1px solid rgb(192 , 192 , 192) ; font-style: inherit ; font-variant: inherit ; font-weight: inherit ; font-stretch: inherit ; font-size: 18.88px ; line-height: 1.65em ; outline: 0px ; vertical-align: text-top ; display: table-cell ; text-indent: 0px ; text-align: left&quot;&gt;&lt;span class=&quot;left&quot; style=&quot;box-sizing: border-box ; border: 0px ; font-style: inherit ; font-variant: inherit ; font-weight: inherit ; font-stretch: inherit ; font-size: inherit ; line-height: inherit ; margin: 0px ; outline: 0px ; padding: 0px ; vertical-align: baseline ; text-align: left&quot;&gt;&lt;font face=&quot;Helvetica&quot;&gt;4.38 minutes&lt;/font&gt;&lt;/span&gt;&lt;/td&gt;&lt;td&gt;&lt;font face=&quot;Helvetica&quot;&gt;&amp;nbsp;21.9 seconds&lt;/font&gt;&lt;/td&gt;&lt;/tr&gt;&lt;tr style=&quot;box-sizing: border-box ; border-width: 0px 0px 1px ; border-bottom-style: solid ; border-bottom-color: rgb(221 , 221 , 221) ; font-style: inherit ; font-variant: inherit ; font-weight: inherit ; font-stretch: inherit ; font-size: inherit ; line-height: inherit ; margin: 0px ; outline: 0px ; padding: 0px ; vertical-align: baseline ; display: table-row&quot;&gt;&lt;td style=&quot;box-sizing: border-box ; margin: 0px ; padding: 10px ; border: 1px solid rgb(192 , 192 , 192) ; font-style: inherit ; font-variant: inherit ; font-weight: inherit ; font-stretch: inherit ; font-size: 18.88px ; line-height: 1.65em ; outline: 0px ; vertical-align: text-top ; display: table-cell ; text-indent: 0px ; text-align: left&quot;&gt;&lt;span class=&quot;left&quot; style=&quot;box-sizing: border-box ; border: 0px ; font-style: inherit ; font-variant: inherit ; font-weight: inherit ; font-stretch: inherit ; font-size: inherit ; line-height: inherit ; margin: 0px ; outline: 0px ; padding: 0px ; vertical-align: baseline ; text-align: left&quot;&gt;&lt;font face=&quot;Helvetica&quot;&gt;99.999&lt;/font&gt;&lt;/span&gt;&lt;/td&gt;&lt;td style=&quot;box-sizing: border-box ; margin: 0px ; padding: 10px ; border: 1px solid rgb(192 , 192 , 192) ; font-style: inherit ; font-variant: inherit ; font-weight: inherit ; font-stretch: inherit ; font-size: 18.88px ; line-height: 1.65em ; outline: 0px ; vertical-align: text-top ; display: table-cell ; text-indent: 0px ; text-align: left&quot;&gt;&lt;span class=&quot;left&quot; style=&quot;box-sizing: border-box ; border: 0px ; font-style: inherit ; font-variant: inherit ; font-weight: inherit ; font-stretch: inherit ; font-size: inherit ; line-height: inherit ; margin: 0px ; outline: 0px ; padding: 0px ; vertical-align: baseline ; text-align: left&quot;&gt;&lt;font face=&quot;Helvetica&quot;&gt;864 milliseconds&lt;/font&gt;&lt;/span&gt;&lt;/td&gt;&lt;td style=&quot;box-sizing: border-box ; margin: 0px ; padding: 10px ; border: 1px solid rgb(192 , 192 , 192) ; font-style: inherit ; font-variant: inherit ; font-weight: inherit ; font-stretch: inherit ; font-size: 18.88px ; line-height: 1.65em ; outline: 0px ; vertical-align: text-top ; display: table-cell ; text-indent: 0px ; text-align: left&quot;&gt;&lt;span class=&quot;left&quot; style=&quot;box-sizing: border-box ; border: 0px ; font-style: inherit ; font-variant: inherit ; font-weight: inherit ; font-stretch: inherit ; font-size: inherit ; line-height: inherit ; margin: 0px ; outline: 0px ; padding: 0px ; vertical-align: baseline ; text-align: left&quot;&gt;&lt;font face=&quot;Helvetica&quot;&gt;6.05 seconds&lt;/font&gt;&lt;/span&gt;&lt;/td&gt;&lt;td style=&quot;box-sizing: border-box ; margin: 0px ; padding: 10px ; border: 1px solid rgb(192 , 192 , 192) ; font-style: inherit ; font-variant: inherit ; font-weight: inherit ; font-stretch: inherit ; font-size: 18.88px ; line-height: 1.65em ; outline: 0px ; vertical-align: text-top ; display: table-cell ; text-indent: 0px ; text-align: left&quot;&gt;&lt;span class=&quot;left&quot; style=&quot;box-sizing: border-box ; border: 0px ; font-style: inherit ; font-variant: inherit ; font-weight: inherit ; font-stretch: inherit ; font-size: inherit ; line-height: inherit ; margin: 0px ; outline: 0px ; padding: 0px ; vertical-align: baseline ; text-align: left&quot;&gt;&lt;font face=&quot;Helvetica&quot;&gt;26.3 seconds&lt;/font&gt;&lt;/span&gt;&lt;/td&gt;&lt;td&gt;&lt;font face=&quot;Helvetica&quot;&gt;&amp;nbsp;2.19 seconds&lt;/font&gt;&lt;/td&gt;&lt;/tr&gt;&lt;tr style=&quot;box-sizing: border-box ; border: 0px ; font: inherit ; margin: 0px ; outline: 0px ; padding: 0px ; vertical-align: baseline ; display: table-row&quot;&gt;&lt;td style=&quot;box-sizing: border-box ; margin: 0px ; padding: 10px ; border: 1px solid rgb(192 , 192 , 192) ; font-style: inherit ; font-variant: inherit ; font-weight: inherit ; font-stretch: inherit ; font-size: 18.88px ; line-height: 1.65em ; outline: 0px ; vertical-align: text-top ; display: table-cell ; text-indent: 0px ; text-align: left&quot;&gt;&lt;span class=&quot;left&quot; style=&quot;box-sizing: border-box ; border: 0px ; font-style: inherit ; font-variant: inherit ; font-weight: inherit ; font-stretch: inherit ; font-size: inherit ; line-height: inherit ; margin: 0px ; outline: 0px ; padding: 0px ; vertical-align: baseline ; text-align: left&quot;&gt;&lt;font face=&quot;Helvetica&quot;&gt;99.9999&lt;/font&gt;&lt;/span&gt;&lt;/td&gt;&lt;td style=&quot;box-sizing: border-box ; margin: 0px ; padding: 10px ; border: 1px solid rgb(192 , 192 , 192) ; font-style: inherit ; font-variant: inherit ; font-weight: inherit ; font-stretch: inherit ; font-size: 18.88px ; line-height: 1.65em ; outline: 0px ; vertical-align: text-top ; display: table-cell ; text-indent: 0px ; text-align: left&quot;&gt;&lt;span class=&quot;left&quot; style=&quot;box-sizing: border-box ; border: 0px ; font-style: inherit ; font-variant: inherit ; font-weight: inherit ; font-stretch: inherit ; font-size: inherit ; line-height: inherit ; margin: 0px ; outline: 0px ; padding: 0px ; vertical-align: baseline ; text-align: left&quot;&gt;&lt;font face=&quot;Helvetica&quot;&gt;86.4 milliseconds&lt;/font&gt;&lt;/span&gt;&lt;/td&gt;&lt;td style=&quot;box-sizing: border-box ; margin: 0px ; padding: 10px ; border: 1px solid rgb(192 , 192 , 192) ; font-style: inherit ; font-variant: inherit ; font-weight: inherit ; font-stretch: inherit ; font-size: 18.88px ; line-height: 1.65em ; outline: 0px ; vertical-align: text-top ; display: table-cell ; text-indent: 0px ; text-align: left&quot;&gt;&lt;span class=&quot;left&quot; style=&quot;box-sizing: border-box ; border: 0px ; font-style: inherit ; font-variant: inherit ; font-weight: inherit ; font-stretch: inherit ; font-size: inherit ; line-height: inherit ; margin: 0px ; outline: 0px ; padding: 0px ; vertical-align: baseline ; text-align: left&quot;&gt;&lt;font face=&quot;Helvetica&quot;&gt;604.8 milliseconds&lt;/font&gt;&lt;/span&gt;&lt;/td&gt;&lt;td style=&quot;box-sizing: border-box ; margin: 0px ; padding: 10px ; border: 1px solid rgb(192 , 192 , 192) ; font-style: inherit ; font-variant: inherit ; font-weight: inherit ; font-stretch: inherit ; font-size: 18.88px ; line-height: 1.65em ; outline: 0px ; vertical-align: text-top ; display: table-cell ; text-indent: 0px ; text-align: left&quot;&gt;&lt;span class=&quot;left&quot; style=&quot;font-style: inherit ; font-variant: inherit ; font-weight: inherit ; font-stretch: inherit ; font-size: inherit ; line-height: inherit ; box-sizing: border-box ; border: 0px ; margin: 0px ; outline: 0px ; padding: 0px ; vertical-align: baseline ; text-align: left&quot;&gt;&lt;font face=&quot;Helvetica&quot;&gt;2.63 seconds&lt;/font&gt;&lt;/span&gt;&lt;/td&gt;&lt;td&gt;&lt;font face=&quot;Helvetica&quot;&gt;&amp;nbsp;0.21 seconds&lt;/font&gt;&lt;/td&gt;&lt;/tr&gt;&lt;/tbody&gt;&lt;/table&gt;" style="text;whiteSpace=wrap;html=1;fillColor=none;strokeColor=#000000;dashed=1;dashPattern=1 2;" parent="1" vertex="1">
          <mxGeometry x="50" y="140" width="940" height="320" as="geometry" />
        </mxCell>
        <mxCell id="Qp-HphKMrTElHFIgSeHp-3" style="edgeStyle=orthogonalEdgeStyle;rounded=0;orthogonalLoop=1;jettySize=auto;html=1;" parent="1" source="Qp-HphKMrTElHFIgSeHp-2" target="Qp-HphKMrTElHFIgSeHp-2" edge="1">
          <mxGeometry relative="1" as="geometry" />
        </mxCell>
      </root>
    </mxGraphModel>
  </diagram>
</mxfile>
